<svg width="900" height="160" version="1.1" xmlns="http://www.w3.org/2000/svg">
<defs>
  <linearGradient id="in" x1="0" y1="0" x2="0" y2="1">
    <stop offset="0%" stop-color="teal"/>
    <stop offset="100%" stop-color="white"/>
  </linearGradient>
  <linearGradient id="pro" x1="0" y1="0" x2="0" y2="1">
    <stop offset="0%" stop-color="royalblue"/>
    <stop offset="100%" stop-color="white"/>
  </linearGradient>
</defs> 
<g transform="translate(200,50) scale(0.75)" font-family="Arial, Helvetica, sans-serif">
  <g transform="translate(-40,45) rotate(90) scale(5,3.5)">
    <path fill="url(#in)" fill-opacity="0.3" stroke="none" d="M0,0 L-16,16 L-8,16 L-8,32, L8,32 L8,16 L16,16 Z"></path>
  </g>
  <g transform="translate(-120,45)">
    <circle cx="0" cy="0" r="50" fill="teal"/>
    <text x="0" y="-12" text-anchor="middle" fill="white">Scraped</text>
    <text x="0" y="5" text-anchor="middle" fill="white" >PDF</text>
    <text x="0" y="20" text-anchor="middle" fill="white" >blanks</text>
  </g>
  <g transform="translate(100,45) rotate(90) scale(5,3.5)">
    <path fill="url(#in)" fill-opacity="0.3" stroke="none" d="M0,0 L-16,16 L-8,16 L-8,32, L8,32 L8,16 L16,16 Z"></path>
  </g>
  <g transform="translate(-25,19)" stroke="#abc">
    <rect x="8" y="-8" width="40" height="60" fill="#fff" stroke-width="3"/>
    <rect x="4" y="-4" width="40" height="60" fill="#fff" stroke-width="3"/>
    <rect x="0" y="0" width="40" height="60" fill="#fff" stroke-width="3"/>
    <rect x="30" y="50" width="5" height="5" fill="#abc"/>
    <text x="22" y="-20" stroke="none" fill="#789" text-anchor="middle">Blank Form</text>
  </g> 
  <g transform="translate(235,45) rotate(90) scale(5,3.5)">
    <path fill="url(#in)" fill-opacity="0.3" stroke="none" d="M0,0 L-16,16 L-8,16 L-8,32, L8,32 L8,16 L16,16 Z"></path>
  </g>
  <g transform="translate(155,45)">
    <circle cx="0" cy="0" r="50" fill="teal"/>
    <text x="0" y="5" text-anchor="middle" fill="white">Parse PDF</text>
  </g>
  <g transform="translate(330,45) scale(1)">
    <path d="M -90 0 L 50 0" stroke="teal" stroke-opacity="0.3" stroke-dasharray="5 3 7 3 10 3 200" stroke-width="80"/>
    <text x="-52" y="4" fill="teal">Taxonomy...</text>
    <path d="M 53 0 L 200 0" stroke="teal" stroke-opacity="0.3" stroke-dasharray="5 3 7 3 10 3 200" stroke-width="80"/>
    <text x="92" y="4" fill="teal">Schema...</text>
  </g>
  <g transform="translate(540,5)">
    <rect x="0" y="0" width="100" height="24" fill="teal"/>
    <rect x="0" y="27.5" width="100" height="24" fill="teal"/>
    <rect x="0" y="55" width="100" height="24" fill="teal"/>
    <text x="10" y="15" style="font-size:3em" fill="white">...</text>
    <text x="10" y="42.5" style="font-size:3em" fill="white">...</text>
    <text x="10" y="70" style="font-size:3em" fill="white">...</text>
  </g>
</g>
</svg>