<svg width="900" height="320" version="1.1" xmlns="http://www.w3.org/2000/svg">
<defs>
  <linearGradient id="in" x1="0" y1="0" x2="0" y2="1">
    <stop offset="0%" stop-color="teal"/>
    <stop offset="100%" stop-color="white"/>
  </linearGradient>
  <linearGradient id="pro" x1="0" y1="0" x2="0" y2="1">
    <stop offset="0%" stop-color="royalblue"/>
    <stop offset="100%" stop-color="white"/>
  </linearGradient>
  <linearGradient id="up" x1="0" y1="0" x2="0" y2="1">
    <stop offset="0%" stop-color="royalblue"/>
    <stop offset="100%" stop-color="#def"/>
  </linearGradient>
  <linearGradient id="down" x1="0" y1="0" x2="0" y2="1">
    <stop offset="0%" stop-color="teal"/>
    <stop offset="100%" stop-color="#def"/>
  </linearGradient>
</defs>
<g transform="translate(100,50) scale(0.75)" font-family="Arial, Helvetica, sans-serif">
  <text x="194" y="-2" fill="teal">--- Indexing Pipeline -----------------------------------------------------</text>
  <g transform="translate(100,45) rotate(90) scale(5,3.5)">
    <path fill="url(#in)" fill-opacity="0.3" stroke="none" d="M0,0 L-16,16 L-8,16 L-8,32, L8,32 L8,16 L16,16 Z"></path>
  </g>
  <g transform="translate(-25,19)" stroke="#abc">
    <rect x="8" y="-8" width="40" height="60" fill="#fff" stroke-width="3"/>
    <rect x="4" y="-4" width="40" height="60" fill="#fff" stroke-width="3"/>
    <rect x="0" y="0" width="40" height="60" fill="#fff" stroke-width="3"/>
    <rect x="30" y="50" width="5" height="5" fill="#abc"/>
    <text x="22" y="-20" stroke="none" fill="#789" text-anchor="middle">Blank Form</text>
  </g>
  <g transform="translate(155,45)">
    <circle cx="0" cy="0" r="50" fill="teal"/>
    <text x="-2" y="40" text-anchor="middle" style="font-size:12em" fill="white" fill-opacity="0.2">a</text>
    <text x="0" y="5" text-anchor="middle" fill="white">Expert</text>
  </g>
  <g transform="translate(300 45) scale(1)">
    <path d="M -90 0 L 50 0" stroke="teal" stroke-opacity="0.3" stroke-dasharray="5 3 7 3 10 3 200" stroke-width="80"/>
    <text x="-50" y="4" fill="teal">Taxonomy...</text>
    <path d="M 53 0 L 200 0" stroke="teal" stroke-opacity="0.3" stroke-dasharray="5 3 7 3 10 3 200" stroke-width="80"/>
    <text x="92" y="4" fill="teal">Schema...</text>
  </g>
  <g transform="translate(510,5)">
    <rect x="0" y="0" width="100" height="24" fill="teal"/>
    <rect x="0" y="27.5" width="100" height="24" fill="teal"/>
    <rect x="0" y="55" width="100" height="24" fill="teal"/>
    <text x="10" y="15" style="font-size:3em" fill="white">...</text>
    <text x="10" y="42.5" style="font-size:3em" fill="white">...</text>
    <text x="10" y="70" style="font-size:3em" fill="white">...</text>
  </g>
  <g transform="translate(290,97) scale(3,1.2)">
    <path fill="url(#up)" fill-opacity="0.7" stroke="none" d="M0,0 L-16,16 L-8,16 L-8,32, L8,32 L8,16 L16,16 Z"></path>
    <g transform="translate(0,64) rotate(180)">
      <path fill="url(#down)" fill-opacity="0.7" stroke="none" d="M0,0 L-16,16 L-8,16 L-8,32, L8,32 L8,16 L16,16 Z"></path>
    </g>
  </g>
  <g transform="translate(435,97) scale(3,1.2)">
    <path fill="url(#up)" fill-opacity="0.7" stroke="none" d="M0,0 L-16,16 L-8,16 L-8,32, L8,32 L8,16 L16,16 Z"></path>
    <g transform="translate(0,64) rotate(180)">
      <path fill="url(#down)" fill-opacity="0.7" stroke="none" d="M0,0 L-16,16 L-8,16 L-8,32, L8,32 L8,16 L16,16 Z"></path>
    </g>
  </g>
  <text x="195" y="280" fill="royalblue">--- Processing Pipeline -------------------------------------------------</text>
  <g transform="translate(100,225) rotate(90) scale(5,3.5)">    
    <path fill="url(#pro)" fill-opacity="0.3" stroke="none" d="M0,0 L-16,16 L-8,16 L-8,32, L8,32 L8,16 L16,16 Z"></path>
  </g>
  <g transform="translate(-25,200)" stroke="#abc">
    <rect x="8" y="-8" width="40" height="60" fill="#fff" stroke-width="3"/>
    <rect x="4" y="-4" width="40" height="60" fill="#fff" stroke-width="3"/>
    <rect x="0" y="0" width="40" height="60" fill="#fff" stroke-width="3"/>
    <path d="M 5 10 L 35 10" stroke-width="2"/>
    <path d="M 5 14 L 35 14" stroke-width="2"/>
    <path d="M 5 18 L 35 18" stroke-width="2"/>
    <path d="M 5 22 L 29 22" stroke-width="2"/>
    <path d="M 5 30 L 35 30" stroke-width="2" stroke-dasharray="13,4,15"/>
    <path d="M 5 34 L 35 34" stroke-width="2" stroke-dasharray="13,4,15"/>
    <path d="M 5 38 L 35 38" stroke-width="2" stroke-dasharray="10,7,15"/>
    <path d="M 5 42 L 35 42" stroke-width="2" stroke-dasharray="13,4,15"/>
    <path d="M 5 46 L 31 46" stroke-width="2" stroke-dasharray="11,6,5"/>
    <rect x="30" y="50" width="5" height="5" fill="#abc"/>
    <text x="22" y="-22" stroke="none" fill="#789" text-anchor="middle">Filed Form</text>
  </g>
  <g transform="translate(155,225)">
    <circle cx="0" cy="0" r="50" fill="royalblue"/>
    <text x="-2" y="40" text-anchor="middle" style="font-size:12em" fill="white" fill-opacity="0.2">a</text>
    <text x="0" y="5" text-anchor="middle" fill="white">Executor</text>
  </g>
  <g transform="translate(300,225) scale(1)">
    <path d="M -90 0 L 50 0" stroke="royalblue" stroke-opacity="0.3" stroke-dasharray="5 3 7 3 10 3 200" stroke-width="80"/>
    <text x="-48" y="4" fill="royalblue">Match...</text>
    <path d="M 53 0 L 200 0" stroke="royalblue" stroke-opacity="0.3" stroke-dasharray="5 3 7 3 10 3 200" stroke-width="80"/>
    <text x="92" y="4" fill="royalblue">Extract...</text>
  </g>
  <g transform="translate(510,185)">
    <rect x="0" y="0" width="100" height="24" fill="royalblue"/>
    <rect x="0" y="27.5" width="100" height="24" fill="royalblue"/>
    <rect x="0" y="55" width="100" height="24" fill="royalblue"/>
    <text x="10" y="15" style="font-size:3em" fill="white">...</text>
    <text x="10" y="42.5" style="font-size:3em" fill="white">...</text>
    <text x="10" y="70" style="font-size:3em" fill="white">...</text>
  </g>
</g>
</svg>